<svg viewBox="0 0 32 32" fill="currentColor" xmlns="http://www.w3.org/2000/svg">
    <path d="M26.44 30H5.56A4.57 4.57 0 0 1 1 25.45V11h30v14.45A4.57 4.57 0 0 1 26.44 30zM3 13v12.45A2.57 2.57 0 0 0 5.56 28h20.88A2.57 2.57 0 0 0 29 25.45V13z"/>
    <path d="M31 13H1V8.58A4.57 4.57 0 0 1 5.56 4h20.88A4.57 4.57 0 0 1 31 8.58zM3 11h26V8.58A2.57 2.57 0 0 0 26.44 6H5.56A2.57 2.57 0 0 0 3 8.58z"/>
    <rect height="6.06" rx="1" width="2" x="6.94" y="1.98"/>
    <rect height="6.06" rx="1" width="2" x="23.06" y="1.98"/>
    <rect height="6.06" rx="1" width="2" x="15" y="1.98"/>
    <path d="M2.31 12v16.25H29.5V12zM11 22.08a1 1 0 1 1 1-1 1 1 0 0 1-1 1zm5 0a1 1 0 1 1 1-1 1 1 0 0 1-1 1zm5 0a1 1 0 1 1 1-1 1 1 0 0 1-1 1z"/>
</svg>
