<svg viewBox="0 0 512 512" xmlns="http://www.w3.org/2000/svg">
    <path d="m512 256c0 141.386719-114.613281 256-256 256-141.382812 0-256-114.613281-256-256 0-141.382812 114.617188-256 256-256 141.386719 0 256 114.617188 256 256zm0 0" fill="#ffcf86"/>
    <path d="m31.484375 256c0-136.097656 106.207031-247.367188 240.257813-255.503906-5.207032-.316406-10.453126-.496094-15.742188-.496094-141.386719 0-256 114.613281-256 256s114.613281 256 256 256c5.289062 0 10.53125-.179688 15.742188-.496094-134.050782-8.132812-240.257813-119.40625-240.257813-255.503906zm0 0" fill="#ffb541"/>
    <path d="m441.988281 150.757812c-3.183593-5.625-9.144531-9.097656-15.605469-9.097656h-105.417968l21.503906 35.875h52.246094c-3.738282 6.238282-90.011719 150.160156-94.070313 156.933594h41.824219c3.773438-6.296875 95.148438-158.726562 99.296875-165.648438 3.320313-5.542968 3.40625-12.441406.222656-18.0625zm0 0" fill="#ffa812"/>
    <path d="m441.765625 343.183594-52.261719-87.183594c-7.25 12.097656-14.425781 24.070312-20.910156 34.886719l26.121094 43.582031h-183.355469l21.503906 35.871094h193.519531c6.460938 0 12.421876-3.472656 15.605469-9.09375 3.183594-5.621094 3.097657-12.523438-.222656-18.0625zm0 0" fill="#ff9a00"/>
    <path d="m143.410156 221.113281-26.125-43.578125h183.359375l-21.507812-35.875h-193.515625c-6.464844 0-12.425782 3.472656-15.609375 9.09375-3.183594 5.625-3.097657 12.523438.222656 18.0625l52.261719 87.183594zm0 0" fill="#ffa812"/>
    <path d="m130.140625 177.535156-21.507813-35.875h-23.011718c-6.464844 0-12.425782 3.472656-15.609375 9.09375-3.183594 5.625-3.097657 12.523438.222656 18.0625l52.261719 87.183594 20.914062-34.886719-26.125-43.578125zm0 0" fill="#ff9a00"/>
    <path d="m279.136719 370.339844-23.136719 38.597656-91.679688-152.9375-20.910156 34.886719 97.207032 162.160156c3.238281 5.40625 9.078124 8.714844 15.382812 8.714844s12.144531-3.308594 15.382812-8.714844l49.582032-82.707031zm0 0" fill="#ffa812"/>
    <path d="m262.425781 398.214844-6.425781 10.722656-91.679688-152.9375-20.910156 34.886719 97.207032 162.160156c3.238281 5.40625 9.078124 8.714844 15.382812 8.714844s12.144531-3.308594 15.382812-8.714844l11.957032-19.945313zm0 0" fill="#ff9a00"/>
    <path d="m117.285156 334.46875 94.070313-156.933594h-41.824219l-99.296875 165.648438c-3.320313 5.539062-3.40625 12.441406-.222656 18.0625 3.183593 5.621094 9.144531 9.09375 15.605469 9.09375h105.417968l-21.503906-35.871094zm0 0" fill="#ff9a00"/>
    <path d="m133.523438 334.46875h-16.238282l94.070313-156.933594h-41.824219l-99.296875 165.648438c-3.320313 5.539062-3.40625 12.441406-.222656 18.0625 3.183593 5.621094 9.144531 9.09375 15.605469 9.09375h26.402343zm0 0" fill="#fc8900"/>
    <path d="m342.46875 177.535156-5.417969-9.039062-65.667969-109.546875c-3.238281-5.402344-9.078124-8.710938-15.382812-8.710938-6.300781 0-12.140625 3.308594-15.382812 8.710938l-49.578126 82.710937h41.824219l23.136719-38.601562 91.679688 152.941406c7.195312-12.003906 14.386718-24 20.910156-34.886719zm0 0" fill="#ff9a00"/>
    <path d="m256 103.058594 8.121094 13.546875 20.914062-34.886719-13.648437-22.765625c-3.242188-5.40625-9.082031-8.714844-15.386719-8.714844-6.300781 0-12.140625 3.308594-15.382812 8.714844l-49.578126 82.707031h41.824219zm0 0" fill="#fc8900"/>
</svg>
